<svg width="1200" height="675" viewBox="0 0 1200 675" xmlns="http://www.w3.org/2000/svg">
  <defs>
    <linearGradient id="bg" x1="0" y1="0" x2="1200" y2="675" gradientUnits="userSpaceOnUse">
      <stop offset="0" stop-color="#f0fdfa"/>
      <stop offset="0.55" stop-color="#ffffff"/>
      <stop offset="1" stop-color="#ccfbf1"/>
    </linearGradient>
    <linearGradient id="line" x1="0" y1="0" x2="1" y2="1">
      <stop offset="0" stop-color="#0d9488" stop-opacity="0.72"/>
      <stop offset="1" stop-color="#2dd4bf" stop-opacity="0.26"/>
    </linearGradient>
    <pattern id="grid" width="44" height="44" patternUnits="userSpaceOnUse">
      <path d="M44 0H0V44" fill="none" stroke="#0d9488" stroke-width="1" opacity="0.06"/>
    </pattern>
    <filter id="soft">
      <feGaussianBlur stdDeviation="7" result="b"/>
      <feMerge>
        <feMergeNode in="b"/>
        <feMergeNode in="SourceGraphic"/>
      </feMerge>
    </filter>
  </defs>
  <rect width="1200" height="675" fill="url(#bg)"/>
  <rect width="1200" height="675" fill="url(#grid)"/>
  <g opacity="0.55" fill="none" stroke="url(#line)" stroke-width="6" stroke-linecap="round" stroke-linejoin="round" filter="url(#soft)">
    <path d="M220 520 C 360 430, 440 600, 590 520 S 820 380, 980 450 S 1080 560, 1100 430"/>
    <path d="M260 260 C 420 180, 520 330, 700 250 S 920 160, 1060 210" stroke-width="4" opacity="0.85"/>
  </g>
  <g fill="#0d9488" opacity="0.20">
    <circle cx="590" cy="520" r="12"/>
    <circle cx="980" cy="450" r="9"/>
    <circle cx="700" cy="250" r="9"/>
  </g>
  <g font-family="Inter, -apple-system, BlinkMacSystemFont, 'Segoe UI', Roboto, sans-serif">
    <text x="40" y="72" font-size="14" fill="#0f766e" font-weight="800" letter-spacing="2" opacity="0.9">CASE STUDY</text>
    <text x="40" y="118" font-size="34" fill="#111827" font-weight="750">CMC / Aggregation</text>
    <text x="40" y="148" font-size="14" fill="#6b7280" font-weight="500">Drop in: images/case-cmc.webp (or .png)</text>
  </g>
</svg>

