<svg width="1440" height="600" viewBox="0 0 1440 600" xmlns="http://www.w3.org/2000/svg">
  <defs>
    <linearGradient id="bg-grad" x1="0%" y1="0%" x2="100%" y2="100%">
      <stop offset="0%" stop-color="#d9fff7" />
      <stop offset="55%" stop-color="#eefefb" />
      <stop offset="100%" stop-color="#b8fff0" />
    </linearGradient>
    <linearGradient id="line-grad" x1="0" y1="0" x2="1440" y2="600" gradientUnits="userSpaceOnUse">
      <stop offset="0%" stop-color="#0d9488" stop-opacity="0.6"/>
      <stop offset="100%" stop-color="#2dd4bf" stop-opacity="0.3"/>
    </linearGradient>
    <linearGradient id="node-grad" x1="0" y1="0" x2="1" y2="1">
      <stop offset="0%" stop-color="#0d9488"/>
      <stop offset="100%" stop-color="#14b8a6"/>
    </linearGradient>
    <radialGradient id="glow-1" cx="50%" cy="50%" r="50%">
      <stop offset="0%" stop-color="#0d9488" stop-opacity="0.22"/>
      <stop offset="100%" stop-color="#0d9488" stop-opacity="0"/>
    </radialGradient>
    <radialGradient id="glow-2" cx="50%" cy="50%" r="50%">
      <stop offset="0%" stop-color="#2dd4bf" stop-opacity="0.18"/>
      <stop offset="100%" stop-color="#2dd4bf" stop-opacity="0"/>
    </radialGradient>
    <filter id="blur-sm">
      <feGaussianBlur stdDeviation="1.5"/>
    </filter>
    <pattern id="hex-grid" x="0" y="0" width="80" height="139" patternUnits="userSpaceOnUse">
      <path d="M40 0 L80 23.1 L80 69.3 L40 92.4 L0 69.3 L0 23.1 Z" fill="none" stroke="#0d9488" stroke-width="0.8" opacity="0.12"/>
      <path d="M40 46.2 L80 69.3 L80 115.5 L40 138.6 L0 115.5 L0 69.3 Z" fill="none" stroke="#0d9488" stroke-width="0.8" opacity="0.08"/>
    </pattern>
  </defs>

  <!-- Base gradient -->
  <rect width="100%" height="100%" fill="url(#bg-grad)" />

  <!-- Hex grid (subtle) -->
  <rect width="100%" height="100%" fill="url(#hex-grid)" />

  <!-- Ambient glows -->
  <ellipse cx="300" cy="200" rx="250" ry="200" fill="url(#glow-1)" />
  <ellipse cx="1100" cy="400" rx="300" ry="220" fill="url(#glow-2)" />
  <ellipse cx="720" cy="100" rx="200" ry="150" fill="url(#glow-1)" />

  <!-- Removed: antibody/humanization process visuals (keep background minimal) -->

  <!-- Scattered connection network (center-bottom) -->
  <g stroke="#0d9488" stroke-width="1" opacity="0.25">
    <line x1="550" y1="350" x2="680" y2="420" />
    <line x1="680" y1="420" x2="820" y2="380" />
    <line x1="820" y1="380" x2="750" y2="500" />
    <line x1="750" y1="500" x2="600" y2="480" />
    <line x1="600" y1="480" x2="550" y2="350" />
    <line x1="680" y1="420" x2="750" y2="500" />
    <line x1="550" y1="350" x2="820" y2="380" />
  </g>
  <g fill="#0d9488" opacity="0.3">
    <circle cx="550" cy="350" r="4" />
    <circle cx="680" cy="420" r="5" />
    <circle cx="820" cy="380" r="4" />
    <circle cx="750" cy="500" r="3.5" />
    <circle cx="600" cy="480" r="3" />
  </g>

  <!-- Floating particles (data points) -->
  <g fill="#0d9488">
    <circle cx="100" cy="80" r="2" opacity="0.4" />
    <circle cx="200" cy="520" r="2.5" opacity="0.3" />
    <circle cx="500" cy="120" r="1.5" opacity="0.5" />
    <circle cx="650" cy="200" r="2" opacity="0.35" />
    <circle cx="800" cy="150" r="1.8" opacity="0.4" />
    <circle cx="950" cy="280" r="2" opacity="0.3" />
    <circle cx="1050" cy="450" r="2.5" opacity="0.35" />
    <circle cx="1200" cy="350" r="1.5" opacity="0.45" />
    <circle cx="1350" cy="180" r="2" opacity="0.3" />
    <circle cx="1300" cy="500" r="1.8" opacity="0.4" />
    <circle cx="450" cy="550" r="2" opacity="0.25" />
    <circle cx="720" cy="560" r="1.5" opacity="0.3" />
  </g>

  <!-- Dashed orbit rings -->
  <g stroke="#0d9488" fill="none" stroke-dasharray="4 8" opacity="0.18">
    <ellipse cx="300" cy="300" rx="180" ry="200" />
    <ellipse cx="1080" cy="100" rx="220" ry="60" />
  </g>

  <!-- Accent dots (bright, sharp) -->
  <g fill="#0f766e" opacity="0.7">
    <circle cx="300" cy="320" r="3" />
    <circle cx="1080" cy="100" r="2.5" />
    <circle cx="680" cy="420" r="2.5" />
  </g>
</svg>
